<?xml version="1.0" standalone="no"?>
<!DOCTYPE svg PUBLIC "-//W3C//DTD SVG 20010904//EN"
 "http://www.w3.org/TR/2001/REC-SVG-20010904/DTD/svg10.dtd">
<svg version="1.0" xmlns="http://www.w3.org/2000/svg"
 width="175.000000pt" height="175.000000pt" viewBox="0 0 175.000000 175.000000"
 preserveAspectRatio="xMidYMid meet">
<metadata>
Created by potrace 1.11, written by Peter Selinger 2001-2013
</metadata>
<g transform="translate(0.000000,175.000000) scale(0.100000,-0.100000)"
fill="#000000" stroke="none">
<path d="M730 1655 c-36 -7 -78 -18 -95 -25 -16 -6 -38 -13 -48 -15 -11 -3
-49 -21 -85 -41 -249 -136 -406 -386 -416 -662 -13 -389 241 -717 626 -806 63
-15 260 -16 322 -2 305 69 546 310 612 611 3 17 8 84 9 150 4 142 -15 237 -72
354 -107 225 -332 398 -568 437 -75 12 -220 11 -285 -1z m282 -154 c120 -28
227 -88 316 -180 244 -248 241 -644 -7 -891 -268 -266 -688 -248 -935 40 -128
149 -180 372 -131 563 30 116 80 204 169 292 110 110 213 161 381 188 37 6
160 -1 207 -12z"/>
<path d="M818 1119 c-79 -18 -152 -83 -177 -158 -15 -46 -14 -135 3 -175 19
-46 73 -104 117 -127 82 -41 199 -29 270 30 107 89 113 275 11 367 -31 28 -76
54 -102 59 -54 10 -89 12 -122 4z"/>
</g>
</svg>
