<?xml version="1.0" encoding="utf-8"?>
<!-- Generator: Adobe Illustrator 23.1.0, SVG Export Plug-In . SVG Version: 6.00 Build 0)  -->
<svg version="1.1" id="Layer_1" xmlns="http://www.w3.org/2000/svg" xmlns:xlink="http://www.w3.org/1999/xlink" x="0px" y="0px"
	 viewBox="0 0 217.5 95.67" style="enable-background:new 0 0 217.5 95.67;" xml:space="preserve">
<style type="text/css">
	.st0{fill:#C82127;stroke:#C82127;stroke-width:2;stroke-miterlimit:10;}
	.st1{fill:#231F20;stroke:#231F20;stroke-width:2;stroke-miterlimit:10;}
	.st2{fill:#231F20;stroke:#231F20;stroke-width:0.5;stroke-miterlimit:10;}
	.st3{font-family:'NEXONLv1GothicBold';}
	.st4{font-size:20.3684px;}
</style>
<g>
	<g>
		<path class="st0" d="M30.3,90.94V66.05H1V54.22L28.99,1h16.56v51.25H216.5v13.8H45.55v24.89H30.3z M30.3,52.25V34.77
			c0-4.6,0.53-9.59,0.92-14.06H30.7c-1.97,4.73-3.68,8.54-5.91,13.27l-9.2,18v0.26H30.3z"/>
	</g>
</g>
<g>
	<path class="st1" d="M109.1,8.57v33.7H98.65V16.91H69.68V8.57H109.1z"/>
	<path class="st1" d="M169.6,33.99v8.34h-39.35V8.44h38.89v8.34H140.9v17.21H169.6z"/>
</g>
<text transform="matrix(1 0 0 1 76.0856 90.9368)" class="st2 st3 st4">4공단지게차</text>
</svg>
