<?xml version="1.0" encoding="utf-8"?>
<!-- Generator: Adobe Illustrator 24.1.1, SVG Export Plug-In . SVG Version: 6.00 Build 0)  -->
<svg version="1.1" id="Layer_1" xmlns="http://www.w3.org/2000/svg" xmlns:xlink="http://www.w3.org/1999/xlink" x="0px" y="0px"
	 viewBox="0 0 439 479" style="enable-background:new 0 0 439 479;" xml:space="preserve">
<g>
	<circle cx="206.62" cy="124.09" r="123.23"/>
	<path d="M206.62,1.27c32.8,0,63.65,12.77,86.84,35.97s35.97,54.04,35.97,86.84s-12.77,63.65-35.97,86.84
		c-23.19,23.2-54.04,35.97-86.84,35.97s-63.65-12.77-86.84-35.97c-23.2-23.19-35.97-54.04-35.97-86.84s12.77-63.65,35.97-86.84
		C142.97,14.04,173.81,1.27,206.62,1.27 M206.62,0.44c-68.29,0-123.65,55.36-123.65,123.65s55.36,123.65,123.65,123.65
		s123.65-55.36,123.65-123.65S274.91,0.44,206.62,0.44L206.62,0.44z"/>
</g>
<g>
	<g>
		<path d="M0.4,482.59c0.11-58.36,22.89-113.22,64.16-154.5c41.38-41.38,96.4-64.16,154.92-64.16s113.53,22.79,154.92,64.16
			c41.29,41.28,64.06,96.14,64.16,154.5H0.4z"/>
		<path d="M219.48,264.33c29.52,0,58.16,5.78,85.12,17.19c26.04,11.01,49.43,26.78,69.51,46.86s35.85,43.47,46.86,69.51
			c11.29,26.7,17.08,55.06,17.18,84.29H0.81c0.11-29.23,5.88-57.58,17.18-84.29c11.01-26.04,26.78-49.43,46.86-69.51
			s43.47-35.85,69.51-46.86C161.32,270.12,189.96,264.33,219.48,264.33 M219.48,263.5C98.26,263.5-0.02,361.77-0.02,483h439
			C438.98,361.77,340.71,263.5,219.48,263.5L219.48,263.5z"/>
	</g>
</g>
</svg>
