<?xml version="1.0" standalone="no"?>
<!DOCTYPE svg PUBLIC "-//W3C//DTD SVG 20010904//EN"
 "http://www.w3.org/TR/2001/REC-SVG-20010904/DTD/svg10.dtd">
<svg version="1.0" xmlns="http://www.w3.org/2000/svg"
 width="488.000000pt" height="488.000000pt" viewBox="0 0 488.000000 488.000000"
 preserveAspectRatio="xMidYMid meet">
<metadata>
Created by potrace 1.11, written by Peter Selinger 2001-2013
</metadata>
<g transform="translate(0.000000,488.000000) scale(0.100000,-0.100000)"
fill="#000000" stroke="none">
<path d="M2045 4873 c-60 -12 -165 -50 -200 -71 -61 -37 -128 -113 -166 -188
-33 -67 -34 -72 -34 -189 0 -109 3 -126 29 -193 16 -40 35 -77 43 -83 7 -6 13
-16 13 -21 0 -10 47 -74 88 -120 l24 -26 -49 -49 c-27 -26 -66 -70 -88 -98
-22 -27 -44 -55 -50 -62 -5 -7 -32 -42 -60 -79 -27 -37 -134 -170 -237 -296
-198 -244 -249 -324 -279 -442 -25 -95 -25 -240 0 -333 34 -131 122 -267 256
-397 l50 -49 -65 39 c-115 70 -125 75 -152 85 -16 6 -28 15 -28 21 0 5 -11 24
-24 41 -13 18 -35 52 -48 77 -51 96 -140 219 -172 239 -94 58 -212 -17 -210
-133 1 -47 45 -180 104 -311 9 -22 21 -51 25 -65 4 -14 16 -37 26 -52 11 -14
19 -29 19 -33 0 -4 63 -72 139 -153 l140 -145 -19 -37 c-63 -123 -110 -322
-117 -490 -5 -124 -3 -145 22 -249 33 -138 81 -235 173 -354 37 -47 80 -108
96 -134 17 -26 68 -106 115 -177 47 -71 91 -136 96 -144 48 -74 85 -88 192
-72 115 17 136 37 156 142 8 46 18 104 22 131 3 26 7 47 8 47 1 0 69 -9 151
-20 81 -11 164 -20 184 -20 28 0 47 -10 96 -52 34 -29 74 -66 90 -83 70 -70
273 -248 300 -262 40 -21 93 -12 162 27 78 45 84 63 84 258 0 158 0 159 26
183 38 35 129 157 154 206 12 23 37 54 57 69 47 36 59 68 72 209 7 66 14 135
17 153 l5 33 32 -23 c17 -13 39 -27 49 -33 9 -5 43 -26 75 -45 55 -33 89 -49
223 -105 30 -13 83 -35 116 -49 86 -36 132 -35 171 6 40 42 73 105 73 139 0
35 -51 103 -106 142 -48 34 -63 43 -206 126 -80 47 -118 79 -275 238 -172 173
-204 213 -168 213 18 0 115 47 175 85 45 28 156 136 198 190 42 57 110 210
128 290 20 94 22 282 5 500 -7 77 -16 194 -21 260 -5 66 -16 152 -24 190 -8
39 -17 98 -21 131 l-7 62 54 17 c273 89 475 328 455 540 -12 123 -83 246 -195
336 -188 149 -461 125 -636 -57 -53 -56 -56 -60 -102 -130 -21 -32 -39 -61
-41 -63 -1 -2 -49 14 -105 36 -214 84 -333 116 -477 129 l-70 7 -6 66 c-19
200 -50 290 -133 382 -94 104 -273 169 -397 142z"/>
</g>
</svg>
